<svg xmlns="http://www.w3.org/2000/svg" width="16.81" height="29.875" viewBox="0 0 16.81 29.875">
  <metadata><?xpacket begin="﻿" id="W5M0MpCehiHzreSzNTczkc9d"?>
<x:xmpmeta xmlns:x="adobe:ns:meta/" x:xmptk="Adobe XMP Core 5.6-c142 79.160924, 2017/07/13-01:06:39        ">
   <rdf:RDF xmlns:rdf="http://www.w3.org/1999/02/22-rdf-syntax-ns#">
      <rdf:Description rdf:about=""/>
   </rdf:RDF>
</x:xmpmeta>
                                                                                                    
                                                                                                    
                                                                                                    
                                                                                                    
                                                                                                    
                                                                                                    
                                                                                                    
                                                                                                    
                                                                                                    
                                                                                                    
                                                                                                    
                                                                                                    
                                                                                                    
                                                                                                    
                                                                                                    
                                                                                                    
                                                                                                    
                                                                                                    
                                                                                                    
                                                                                                    
                           
<?xpacket end="w"?></metadata>
<defs>
    <style>
      .cls-1 {
        fill: #ececec;
        fill-rule: evenodd;
      }
    </style>
  </defs>
  <path id="iPhone_potrait_копия" data-name="iPhone potrait копия" class="cls-1" d="M1054.47,6.824h13.43a1.779,1.779,0,0,1,1.68,1.866V34.812a1.779,1.779,0,0,1-1.68,1.866h-13.43a1.779,1.779,0,0,1-1.68-1.866V8.69A1.779,1.779,0,0,1,1054.47,6.824Zm2.94,1.866h7.55a0.469,0.469,0,0,1,0,.933h-7.55A0.469,0.469,0,0,1,1057.41,8.69Zm-2.94,2.8h13.43V32.946h-13.43V11.489Zm6.72,22.39a0.938,0.938,0,1,1-.84.933A0.893,0.893,0,0,1,1061.19,33.879Z" transform="translate(-1052.78 -6.813)"/>
</svg>
